<mxfile host="Electron" agent="Mozilla/5.0 (Macintosh; Intel Mac OS X 10_15_7) AppleWebKit/537.36 (KHTML, like Gecko) draw.io/24.7.8 Chrome/128.0.6613.36 Electron/32.0.1 Safari/537.36" version="24.7.8">
  <diagram name="PÃ¡gina-1" id="mrtegxDcKuLyT-rHk_0z">
    <mxGraphModel dx="980" dy="644" grid="1" gridSize="10" guides="1" tooltips="1" connect="1" arrows="1" fold="1" page="1" pageScale="1" pageWidth="827" pageHeight="1169" math="0" shadow="0">
      <root>
        <mxCell id="0" />
        <mxCell id="1" parent="0" />
        <mxCell id="gzPxU7n1VM5Tg1i428SV-1" value="VPN Tailscale&lt;div&gt;(ule-informatica.org.github)&lt;/div&gt;" style="rounded=0;whiteSpace=wrap;html=1;" vertex="1" parent="1">
          <mxGeometry x="360" y="380" width="150" height="60" as="geometry" />
        </mxCell>
        <mxCell id="gzPxU7n1VM5Tg1i428SV-2" value="f5" style="ellipse;whiteSpace=wrap;html=1;" vertex="1" parent="1">
          <mxGeometry x="640" y="170" width="40" height="30" as="geometry" />
        </mxCell>
        <mxCell id="gzPxU7n1VM5Tg1i428SV-3" value="g7" style="ellipse;whiteSpace=wrap;html=1;" vertex="1" parent="1">
          <mxGeometry x="640" y="330" width="40" height="30" as="geometry" />
        </mxCell>
        <mxCell id="gzPxU7n1VM5Tg1i428SV-4" value="f5-01" style="shape=parallelogram;perimeter=parallelogramPerimeter;whiteSpace=wrap;html=1;fixedSize=1;" vertex="1" parent="1">
          <mxGeometry x="730" y="80" width="70" height="30" as="geometry" />
        </mxCell>
        <mxCell id="gzPxU7n1VM5Tg1i428SV-5" value="f5-15" style="shape=parallelogram;perimeter=parallelogramPerimeter;whiteSpace=wrap;html=1;fixedSize=1;" vertex="1" parent="1">
          <mxGeometry x="730" y="150" width="70" height="30" as="geometry" />
        </mxCell>
        <mxCell id="gzPxU7n1VM5Tg1i428SV-6" value="f5d-01" style="shape=parallelogram;perimeter=parallelogramPerimeter;whiteSpace=wrap;html=1;fixedSize=1;" vertex="1" parent="1">
          <mxGeometry x="730" y="190" width="70" height="30" as="geometry" />
        </mxCell>
        <mxCell id="gzPxU7n1VM5Tg1i428SV-7" value="f5d-20b" style="shape=parallelogram;perimeter=parallelogramPerimeter;whiteSpace=wrap;html=1;fixedSize=1;" vertex="1" parent="1">
          <mxGeometry x="730" y="250" width="70" height="30" as="geometry" />
        </mxCell>
        <mxCell id="gzPxU7n1VM5Tg1i428SV-8" value="g7-01" style="shape=parallelogram;perimeter=parallelogramPerimeter;whiteSpace=wrap;html=1;fixedSize=1;" vertex="1" parent="1">
          <mxGeometry x="730" y="290" width="70" height="30" as="geometry" />
        </mxCell>
        <mxCell id="gzPxU7n1VM5Tg1i428SV-9" value="g7-15" style="shape=parallelogram;perimeter=parallelogramPerimeter;whiteSpace=wrap;html=1;fixedSize=1;" vertex="1" parent="1">
          <mxGeometry x="730" y="360" width="70" height="30" as="geometry" />
        </mxCell>
        <mxCell id="gzPxU7n1VM5Tg1i428SV-10" value="e5" style="ellipse;whiteSpace=wrap;html=1;" vertex="1" parent="1">
          <mxGeometry x="640" y="440" width="40" height="30" as="geometry" />
        </mxCell>
        <mxCell id="gzPxU7n1VM5Tg1i428SV-11" value="label5-a1" style="shape=parallelogram;perimeter=parallelogramPerimeter;whiteSpace=wrap;html=1;fixedSize=1;" vertex="1" parent="1">
          <mxGeometry x="720" y="400" width="80" height="30" as="geometry" />
        </mxCell>
        <mxCell id="gzPxU7n1VM5Tg1i428SV-12" value="label5-e2" style="shape=parallelogram;perimeter=parallelogramPerimeter;whiteSpace=wrap;html=1;fixedSize=1;" vertex="1" parent="1">
          <mxGeometry x="720" y="470" width="80" height="30" as="geometry" />
        </mxCell>
        <mxCell id="gzPxU7n1VM5Tg1i428SV-14" value="" style="endArrow=none;dashed=1;html=1;dashPattern=1 3;strokeWidth=2;rounded=0;" edge="1" parent="1" source="gzPxU7n1VM5Tg1i428SV-5" target="gzPxU7n1VM5Tg1i428SV-4">
          <mxGeometry width="50" height="50" relative="1" as="geometry">
            <mxPoint x="760" y="140" as="sourcePoint" />
            <mxPoint x="360" y="310" as="targetPoint" />
          </mxGeometry>
        </mxCell>
        <mxCell id="gzPxU7n1VM5Tg1i428SV-15" value="" style="endArrow=none;dashed=1;html=1;dashPattern=1 3;strokeWidth=2;rounded=0;" edge="1" parent="1" source="gzPxU7n1VM5Tg1i428SV-7" target="gzPxU7n1VM5Tg1i428SV-6">
          <mxGeometry width="50" height="50" relative="1" as="geometry">
            <mxPoint x="775" y="160" as="sourcePoint" />
            <mxPoint x="775" y="120" as="targetPoint" />
          </mxGeometry>
        </mxCell>
        <mxCell id="gzPxU7n1VM5Tg1i428SV-16" value="" style="endArrow=none;dashed=1;html=1;dashPattern=1 3;strokeWidth=2;rounded=0;" edge="1" parent="1" source="gzPxU7n1VM5Tg1i428SV-9" target="gzPxU7n1VM5Tg1i428SV-8">
          <mxGeometry width="50" height="50" relative="1" as="geometry">
            <mxPoint x="775" y="260" as="sourcePoint" />
            <mxPoint x="775" y="230" as="targetPoint" />
          </mxGeometry>
        </mxCell>
        <mxCell id="gzPxU7n1VM5Tg1i428SV-17" value="" style="endArrow=none;dashed=1;html=1;dashPattern=1 3;strokeWidth=2;rounded=0;" edge="1" parent="1" source="gzPxU7n1VM5Tg1i428SV-12" target="gzPxU7n1VM5Tg1i428SV-11">
          <mxGeometry width="50" height="50" relative="1" as="geometry">
            <mxPoint x="775" y="370" as="sourcePoint" />
            <mxPoint x="775" y="330" as="targetPoint" />
          </mxGeometry>
        </mxCell>
        <mxCell id="gzPxU7n1VM5Tg1i428SV-18" value="" style="endArrow=none;html=1;rounded=0;" edge="1" parent="1" source="gzPxU7n1VM5Tg1i428SV-2" target="gzPxU7n1VM5Tg1i428SV-4">
          <mxGeometry width="50" height="50" relative="1" as="geometry">
            <mxPoint x="310" y="360" as="sourcePoint" />
            <mxPoint x="360" y="310" as="targetPoint" />
          </mxGeometry>
        </mxCell>
        <mxCell id="gzPxU7n1VM5Tg1i428SV-19" value="" style="endArrow=none;html=1;rounded=0;" edge="1" parent="1" source="gzPxU7n1VM5Tg1i428SV-2" target="gzPxU7n1VM5Tg1i428SV-7">
          <mxGeometry width="50" height="50" relative="1" as="geometry">
            <mxPoint x="683" y="184" as="sourcePoint" />
            <mxPoint x="758" y="120" as="targetPoint" />
          </mxGeometry>
        </mxCell>
        <mxCell id="gzPxU7n1VM5Tg1i428SV-20" value="" style="endArrow=none;html=1;rounded=0;" edge="1" parent="1" source="gzPxU7n1VM5Tg1i428SV-3" target="gzPxU7n1VM5Tg1i428SV-8">
          <mxGeometry width="50" height="50" relative="1" as="geometry">
            <mxPoint x="684" y="206" as="sourcePoint" />
            <mxPoint x="758" y="262" as="targetPoint" />
          </mxGeometry>
        </mxCell>
        <mxCell id="gzPxU7n1VM5Tg1i428SV-21" value="" style="endArrow=none;html=1;rounded=0;" edge="1" parent="1" source="gzPxU7n1VM5Tg1i428SV-3" target="gzPxU7n1VM5Tg1i428SV-9">
          <mxGeometry width="50" height="50" relative="1" as="geometry">
            <mxPoint x="688" y="348" as="sourcePoint" />
            <mxPoint x="741" y="328" as="targetPoint" />
          </mxGeometry>
        </mxCell>
        <mxCell id="gzPxU7n1VM5Tg1i428SV-22" value="" style="endArrow=none;html=1;rounded=0;" edge="1" parent="1" source="gzPxU7n1VM5Tg1i428SV-10" target="gzPxU7n1VM5Tg1i428SV-11">
          <mxGeometry width="50" height="50" relative="1" as="geometry">
            <mxPoint x="689" y="360" as="sourcePoint" />
            <mxPoint x="754" y="379" as="targetPoint" />
          </mxGeometry>
        </mxCell>
        <mxCell id="gzPxU7n1VM5Tg1i428SV-23" value="" style="endArrow=none;html=1;rounded=0;" edge="1" parent="1" source="gzPxU7n1VM5Tg1i428SV-10" target="gzPxU7n1VM5Tg1i428SV-12">
          <mxGeometry width="50" height="50" relative="1" as="geometry">
            <mxPoint x="688" y="458" as="sourcePoint" />
            <mxPoint x="733" y="440" as="targetPoint" />
          </mxGeometry>
        </mxCell>
        <mxCell id="gzPxU7n1VM5Tg1i428SV-24" value="ansible_dimia&lt;div&gt;(GitHub)&lt;/div&gt;" style="shape=cylinder3;whiteSpace=wrap;html=1;boundedLbl=1;backgroundOutline=1;size=15;" vertex="1" parent="1">
          <mxGeometry x="190" y="240" width="100" height="80" as="geometry" />
        </mxCell>
        <mxCell id="gzPxU7n1VM5Tg1i428SV-25" value="hosts&lt;div&gt;(tagged)&lt;/div&gt;" style="rounded=1;whiteSpace=wrap;html=1;" vertex="1" parent="1">
          <mxGeometry x="540" y="270" width="60" height="40" as="geometry" />
        </mxCell>
        <mxCell id="gzPxU7n1VM5Tg1i428SV-26" value="" style="endArrow=none;html=1;rounded=0;" edge="1" parent="1" source="gzPxU7n1VM5Tg1i428SV-25" target="gzPxU7n1VM5Tg1i428SV-1">
          <mxGeometry width="50" height="50" relative="1" as="geometry">
            <mxPoint x="310" y="360" as="sourcePoint" />
            <mxPoint x="360" y="310" as="targetPoint" />
          </mxGeometry>
        </mxCell>
        <mxCell id="gzPxU7n1VM5Tg1i428SV-27" value="" style="endArrow=none;html=1;rounded=0;" edge="1" parent="1" source="gzPxU7n1VM5Tg1i428SV-2" target="gzPxU7n1VM5Tg1i428SV-25">
          <mxGeometry width="50" height="50" relative="1" as="geometry">
            <mxPoint x="310" y="360" as="sourcePoint" />
            <mxPoint x="360" y="310" as="targetPoint" />
          </mxGeometry>
        </mxCell>
        <mxCell id="gzPxU7n1VM5Tg1i428SV-28" value="" style="endArrow=none;html=1;rounded=0;" edge="1" parent="1" source="gzPxU7n1VM5Tg1i428SV-3" target="gzPxU7n1VM5Tg1i428SV-25">
          <mxGeometry width="50" height="50" relative="1" as="geometry">
            <mxPoint x="659" y="208" as="sourcePoint" />
            <mxPoint x="597" y="280" as="targetPoint" />
          </mxGeometry>
        </mxCell>
        <mxCell id="gzPxU7n1VM5Tg1i428SV-29" value="" style="endArrow=none;html=1;rounded=0;" edge="1" parent="1" source="gzPxU7n1VM5Tg1i428SV-10" target="gzPxU7n1VM5Tg1i428SV-25">
          <mxGeometry width="50" height="50" relative="1" as="geometry">
            <mxPoint x="654" y="346" as="sourcePoint" />
            <mxPoint x="610" y="318" as="targetPoint" />
          </mxGeometry>
        </mxCell>
        <mxCell id="gzPxU7n1VM5Tg1i428SV-30" value="Users" style="rounded=1;whiteSpace=wrap;html=1;" vertex="1" parent="1">
          <mxGeometry x="540" y="545" width="60" height="40" as="geometry" />
        </mxCell>
        <mxCell id="gzPxU7n1VM5Tg1i428SV-31" value="" style="endArrow=none;html=1;rounded=0;" edge="1" parent="1" source="gzPxU7n1VM5Tg1i428SV-1" target="gzPxU7n1VM5Tg1i428SV-30">
          <mxGeometry width="50" height="50" relative="1" as="geometry">
            <mxPoint x="310" y="360" as="sourcePoint" />
            <mxPoint x="360" y="310" as="targetPoint" />
          </mxGeometry>
        </mxCell>
        <mxCell id="gzPxU7n1VM5Tg1i428SV-32" value="Admin" style="ellipse;whiteSpace=wrap;html=1;" vertex="1" parent="1">
          <mxGeometry x="630" y="550" width="50" height="30" as="geometry" />
        </mxCell>
        <mxCell id="gzPxU7n1VM5Tg1i428SV-33" value="Owner" style="ellipse;whiteSpace=wrap;html=1;" vertex="1" parent="1">
          <mxGeometry x="630" y="500" width="50" height="30" as="geometry" />
        </mxCell>
        <mxCell id="gzPxU7n1VM5Tg1i428SV-34" value="Members" style="ellipse;whiteSpace=wrap;html=1;" vertex="1" parent="1">
          <mxGeometry x="630" y="600" width="50" height="30" as="geometry" />
        </mxCell>
        <mxCell id="gzPxU7n1VM5Tg1i428SV-35" value="" style="endArrow=none;html=1;rounded=0;" edge="1" parent="1" source="gzPxU7n1VM5Tg1i428SV-30" target="gzPxU7n1VM5Tg1i428SV-33">
          <mxGeometry width="50" height="50" relative="1" as="geometry">
            <mxPoint x="310" y="360" as="sourcePoint" />
            <mxPoint x="360" y="310" as="targetPoint" />
          </mxGeometry>
        </mxCell>
        <mxCell id="gzPxU7n1VM5Tg1i428SV-36" value="" style="endArrow=none;html=1;rounded=0;" edge="1" parent="1" source="gzPxU7n1VM5Tg1i428SV-30" target="gzPxU7n1VM5Tg1i428SV-32">
          <mxGeometry width="50" height="50" relative="1" as="geometry">
            <mxPoint x="610" y="561" as="sourcePoint" />
            <mxPoint x="645" y="544" as="targetPoint" />
          </mxGeometry>
        </mxCell>
        <mxCell id="gzPxU7n1VM5Tg1i428SV-37" value="" style="endArrow=none;html=1;rounded=0;" edge="1" parent="1" source="gzPxU7n1VM5Tg1i428SV-30" target="gzPxU7n1VM5Tg1i428SV-34">
          <mxGeometry width="50" height="50" relative="1" as="geometry">
            <mxPoint x="610" y="575" as="sourcePoint" />
            <mxPoint x="640" y="575" as="targetPoint" />
          </mxGeometry>
        </mxCell>
        <mxCell id="gzPxU7n1VM5Tg1i428SV-38" value="User machine" style="shape=parallelogram;perimeter=parallelogramPerimeter;whiteSpace=wrap;html=1;fixedSize=1;" vertex="1" parent="1">
          <mxGeometry x="180" y="380" width="120" height="60" as="geometry" />
        </mxCell>
        <mxCell id="gzPxU7n1VM5Tg1i428SV-39" value="" style="endArrow=none;html=1;rounded=0;" edge="1" parent="1" source="gzPxU7n1VM5Tg1i428SV-38" target="gzPxU7n1VM5Tg1i428SV-1">
          <mxGeometry width="50" height="50" relative="1" as="geometry">
            <mxPoint x="300" y="420" as="sourcePoint" />
            <mxPoint x="350" y="370" as="targetPoint" />
          </mxGeometry>
        </mxCell>
        <mxCell id="gzPxU7n1VM5Tg1i428SV-40" value="" style="endArrow=none;html=1;rounded=0;" edge="1" parent="1" source="gzPxU7n1VM5Tg1i428SV-38" target="gzPxU7n1VM5Tg1i428SV-24">
          <mxGeometry width="50" height="50" relative="1" as="geometry">
            <mxPoint x="300" y="420" as="sourcePoint" />
            <mxPoint x="350" y="370" as="targetPoint" />
          </mxGeometry>
        </mxCell>
        <mxCell id="gzPxU7n1VM5Tg1i428SV-41" value="&lt;font face=&quot;Courier New&quot;&gt;&lt;b&gt;&amp;nbsp; &amp;gt; books&lt;/b&gt;&lt;/font&gt;&lt;div&gt;&lt;font face=&quot;Courier New&quot;&gt;&lt;b&gt;&amp;nbsp; &amp;gt; files&lt;/b&gt;&lt;/font&gt;&lt;/div&gt;&lt;div&gt;&lt;font face=&quot;Courier New&quot;&gt;&lt;b&gt;&amp;nbsp; &amp;gt; scripts&lt;/b&gt;&lt;/font&gt;&lt;/div&gt;&lt;div&gt;&lt;font face=&quot;Courier New&quot;&gt;&lt;b&gt;&amp;nbsp; &amp;gt; tasks&lt;/b&gt;&lt;/font&gt;&lt;/div&gt;&lt;div&gt;&lt;font face=&quot;Courier New&quot;&gt;&lt;b&gt;&amp;nbsp; hosts&lt;/b&gt;&lt;/font&gt;&lt;/div&gt;&lt;div&gt;&lt;font face=&quot;Courier New&quot;&gt;&lt;b&gt;&amp;nbsp; local.yml&lt;/b&gt;&lt;/font&gt;&lt;/div&gt;" style="shape=document;whiteSpace=wrap;html=1;boundedLbl=1;align=left;" vertex="1" parent="1">
          <mxGeometry x="330" y="190" width="110" height="130" as="geometry" />
        </mxCell>
        <mxCell id="gzPxU7n1VM5Tg1i428SV-46" value="" style="endArrow=none;html=1;rounded=0;" edge="1" parent="1" source="gzPxU7n1VM5Tg1i428SV-24" target="gzPxU7n1VM5Tg1i428SV-41">
          <mxGeometry width="50" height="50" relative="1" as="geometry">
            <mxPoint x="300" y="420" as="sourcePoint" />
            <mxPoint x="350" y="370" as="targetPoint" />
          </mxGeometry>
        </mxCell>
        <mxCell id="gzPxU7n1VM5Tg1i428SV-47" value="" style="endArrow=classic;html=1;rounded=0;" edge="1" parent="1" source="gzPxU7n1VM5Tg1i428SV-24" target="gzPxU7n1VM5Tg1i428SV-4">
          <mxGeometry width="50" height="50" relative="1" as="geometry">
            <mxPoint x="480" y="380" as="sourcePoint" />
            <mxPoint x="530" y="330" as="targetPoint" />
            <Array as="points">
              <mxPoint x="240" y="95" />
            </Array>
          </mxGeometry>
        </mxCell>
        <mxCell id="gzPxU7n1VM5Tg1i428SV-50" value="&lt;font face=&quot;Courier New&quot; style=&quot;font-size: 14px;&quot;&gt;&lt;b&gt;crontab -&amp;gt; ansible-pull -o -U &amp;lt;repo&amp;gt; local.yml&lt;/b&gt;&lt;/font&gt;" style="edgeLabel;html=1;align=center;verticalAlign=middle;resizable=0;points=[];" vertex="1" connectable="0" parent="gzPxU7n1VM5Tg1i428SV-47">
          <mxGeometry x="-0.0078" y="2" relative="1" as="geometry">
            <mxPoint x="65" y="-13" as="offset" />
          </mxGeometry>
        </mxCell>
        <mxCell id="gzPxU7n1VM5Tg1i428SV-54" value="initial instalation" style="shape=cylinder3;whiteSpace=wrap;html=1;boundedLbl=1;backgroundOutline=1;size=15;" vertex="1" parent="1">
          <mxGeometry x="480" y="125" width="100" height="80" as="geometry" />
        </mxCell>
        <mxCell id="gzPxU7n1VM5Tg1i428SV-55" value="" style="endArrow=classic;html=1;rounded=0;" edge="1" parent="1" source="gzPxU7n1VM5Tg1i428SV-54" target="gzPxU7n1VM5Tg1i428SV-4">
          <mxGeometry width="50" height="50" relative="1" as="geometry">
            <mxPoint x="480" y="380" as="sourcePoint" />
            <mxPoint x="530" y="330" as="targetPoint" />
          </mxGeometry>
        </mxCell>
      </root>
    </mxGraphModel>
  </diagram>
</mxfile>
